<svg width="32" height="32" viewBox="0 0 32 32" fill="none" xmlns="http://www.w3.org/2000/svg">
<g clip-path="url(#clip0_1_111)">
<path d="M32 0H0V32H32V0Z" fill="#DDDDDD"/>
<path d="M7.5136 14.5632L7.3664 15.4336C7.46027 15.4123 7.54773 15.3973 7.6288 15.3888C7.71414 15.3803 7.79734 15.376 7.8784 15.376C8.096 15.376 8.288 15.408 8.4544 15.472C8.6208 15.5403 8.7616 15.632 8.8768 15.7472C8.98774 15.8624 9.07307 15.9968 9.1328 16.1504C9.18827 16.304 9.216 16.4704 9.216 16.6496C9.216 16.8715 9.1776 17.072 9.1008 17.2512C9.024 17.4347 8.9152 17.5925 8.7744 17.7248C8.63787 17.8528 8.47573 17.9531 8.288 18.0256C8.096 18.0939 7.88907 18.128 7.6672 18.128C7.5392 18.128 7.41547 18.1152 7.296 18.0896C7.1808 18.064 7.072 18.0277 6.9696 17.9808C6.8672 17.9339 6.7712 17.8827 6.6816 17.8272C6.59627 17.7675 6.51733 17.7056 6.4448 17.6416L6.6688 17.3344C6.71147 17.2704 6.7712 17.2384 6.848 17.2384C6.89493 17.2384 6.944 17.2533 6.9952 17.2832C7.0464 17.3173 7.104 17.3515 7.168 17.3856C7.232 17.424 7.30667 17.4581 7.392 17.488C7.4816 17.5179 7.58827 17.5328 7.712 17.5328C7.84 17.5328 7.9552 17.5115 8.0576 17.4688C8.15574 17.4261 8.2368 17.3664 8.3008 17.2896C8.36907 17.2171 8.42027 17.1275 8.4544 17.0208C8.48853 16.9184 8.5056 16.8053 8.5056 16.6816C8.5056 16.4555 8.43947 16.2784 8.3072 16.1504C8.17493 16.0224 7.9808 15.9584 7.7248 15.9584C7.52427 15.9584 7.3216 15.9947 7.1168 16.0672L6.6752 15.9392L7.0208 13.9168H9.0752V14.224C9.0752 14.3221 9.0432 14.4032 8.9792 14.4672C8.9152 14.5312 8.80853 14.5632 8.6592 14.5632H7.5136ZM12.736 16.0032C12.736 16.3659 12.6976 16.6795 12.6208 16.944C12.5397 17.2128 12.4309 17.4347 12.2944 17.6096C12.1579 17.7845 11.9957 17.9147 11.808 18C11.6203 18.0853 11.4176 18.128 11.2 18.128C10.9867 18.128 10.7861 18.0853 10.5984 18C10.4149 17.9147 10.2549 17.7845 10.1184 17.6096C9.98187 17.4347 9.8752 17.2128 9.7984 16.944C9.7216 16.6795 9.6832 16.3659 9.6832 16.0032C9.6832 15.6363 9.7216 15.3205 9.7984 15.056C9.8752 14.7872 9.98187 14.5653 10.1184 14.3904C10.2549 14.2155 10.4149 14.0853 10.5984 14C10.7861 13.9147 10.9867 13.872 11.2 13.872C11.4176 13.872 11.6203 13.9147 11.808 14C11.9957 14.0853 12.1579 14.2155 12.2944 14.3904C12.4309 14.5653 12.5397 14.7872 12.6208 15.056C12.6976 15.3205 12.736 15.6363 12.736 16.0032ZM12 16.0032C12 15.7003 11.9787 15.4507 11.936 15.2544C11.8891 15.0539 11.8293 14.896 11.7568 14.7808C11.6843 14.6613 11.5989 14.5781 11.5008 14.5312C11.4069 14.4843 11.3067 14.4608 11.2 14.4608C11.1019 14.4608 11.0037 14.4843 10.9056 14.5312C10.8117 14.5781 10.7285 14.6613 10.656 14.7808C10.5835 14.896 10.5259 15.0539 10.4832 15.2544C10.4405 15.4507 10.4192 15.7003 10.4192 16.0032C10.4192 16.3019 10.4405 16.5515 10.4832 16.752C10.5259 16.9483 10.5835 17.104 10.656 17.2192C10.7285 17.3387 10.8117 17.4219 10.9056 17.4688C11.0037 17.5157 11.1019 17.5392 11.2 17.5392C11.3067 17.5392 11.4069 17.5157 11.5008 17.4688C11.5989 17.4219 11.6843 17.3387 11.7568 17.2192C11.8293 17.104 11.8891 16.9483 11.936 16.752C11.9787 16.5515 12 16.3019 12 16.0032ZM17.3056 17.1296L16.928 17.5008L15.9552 16.528L14.9696 17.5072L14.592 17.136L15.5776 16.1504L14.6368 15.2096L15.0144 14.832L15.9488 15.7728L16.8832 14.8384L17.2672 15.216L16.3264 16.1504L17.3056 17.1296ZM20.3328 14.5632L20.1856 15.4336C20.2795 15.4123 20.3691 15.3973 20.4544 15.3888C20.5397 15.3803 20.6208 15.376 20.6976 15.376C20.9152 15.376 21.1093 15.408 21.28 15.472C21.4464 15.5403 21.5851 15.632 21.696 15.7472C21.8112 15.8624 21.8965 15.9968 21.952 16.1504C22.0117 16.304 22.0416 16.4704 22.0416 16.6496C22.0416 16.8715 22.0032 17.072 21.9264 17.2512C21.8453 17.4347 21.7365 17.5925 21.6 17.7248C21.4635 17.8528 21.2992 17.9531 21.1072 18.0256C20.9195 18.0939 20.7147 18.128 20.4928 18.128C20.3605 18.128 20.2368 18.1152 20.1216 18.0896C20.0021 18.064 19.8912 18.0277 19.7888 17.9808C19.6864 17.9339 19.5925 17.8827 19.5072 17.8272C19.4176 17.7675 19.3387 17.7056 19.2704 17.6416L19.488 17.3344C19.5349 17.2704 19.5947 17.2384 19.6672 17.2384C19.7184 17.2384 19.7675 17.2533 19.8144 17.2832C19.8656 17.3173 19.9232 17.3515 19.9872 17.3856C20.0512 17.424 20.128 17.4581 20.2176 17.488C20.3029 17.5179 20.4075 17.5328 20.5312 17.5328C20.6635 17.5328 20.7787 17.5115 20.8768 17.4688C20.9749 17.4261 21.0581 17.3664 21.1264 17.2896C21.1904 17.2171 21.2395 17.1275 21.2736 17.0208C21.3077 16.9184 21.3248 16.8053 21.3248 16.6816C21.3248 16.4555 21.2587 16.2784 21.1264 16.1504C20.9984 16.0224 20.8043 15.9584 20.544 15.9584C20.3477 15.9584 20.1451 15.9947 19.936 16.0672L19.4944 15.9392L19.84 13.9168H21.8944V14.224C21.8944 14.3221 21.8624 14.4032 21.7984 14.4672C21.7387 14.5312 21.632 14.5632 21.4784 14.5632H20.3328ZM25.5552 16.0032C25.5552 16.3659 25.5168 16.6795 25.44 16.944C25.3632 17.2128 25.2565 17.4347 25.12 17.6096C24.9792 17.7845 24.8171 17.9147 24.6336 18C24.4459 18.0853 24.2432 18.128 24.0256 18.128C23.808 18.128 23.6075 18.0853 23.424 18C23.2363 17.9147 23.0741 17.7845 22.9376 17.6096C22.8011 17.4347 22.6944 17.2128 22.6176 16.944C22.5408 16.6795 22.5024 16.3659 22.5024 16.0032C22.5024 15.6363 22.5408 15.3205 22.6176 15.056C22.6944 14.7872 22.8011 14.5653 22.9376 14.3904C23.0741 14.2155 23.2363 14.0853 23.424 14C23.6075 13.9147 23.808 13.872 24.0256 13.872C24.2432 13.872 24.4459 13.9147 24.6336 14C24.8171 14.0853 24.9792 14.2155 25.12 14.3904C25.2565 14.5653 25.3632 14.7872 25.44 15.056C25.5168 15.3205 25.5552 15.6363 25.5552 16.0032ZM24.8192 16.0032C24.8192 15.7003 24.7979 15.4507 24.7552 15.2544C24.7125 15.0539 24.6528 14.896 24.576 14.7808C24.5035 14.6613 24.4203 14.5781 24.3264 14.5312C24.2283 14.4843 24.128 14.4608 24.0256 14.4608C23.9232 14.4608 23.8251 14.4843 23.7312 14.5312C23.6331 14.5781 23.5477 14.6613 23.4752 14.7808C23.4027 14.896 23.3451 15.0539 23.3024 15.2544C23.2597 15.4507 23.2384 15.7003 23.2384 16.0032C23.2384 16.3019 23.2597 16.5515 23.3024 16.752C23.3451 16.9483 23.4027 17.104 23.4752 17.2192C23.5477 17.3387 23.6331 17.4219 23.7312 17.4688C23.8251 17.5157 23.9232 17.5392 24.0256 17.5392C24.128 17.5392 24.2283 17.5157 24.3264 17.4688C24.4203 17.4219 24.5035 17.3387 24.576 17.2192C24.6528 17.104 24.7125 16.9483 24.7552 16.752C24.7979 16.5515 24.8192 16.3019 24.8192 16.0032Z" fill="#999999"/>
</g>
<defs>
<clipPath id="clip0_1_111">
<rect width="32" height="32" fill="white"/>
</clipPath>
</defs>
</svg>
