<svg width="16" height="24" viewBox="0 0 16 24" fill="none" xmlns="http://www.w3.org/2000/svg">
<path d="M14.3553 9.74113C14.3655 9.88325 14.3655 10.0254 14.3655 10.1675C14.3655 14.5025 11.066 19.4975 5.03553 19.4975C3.17766 19.4975 1.45178 18.9594 0 18.0254C0.263969 18.0558 0.51775 18.066 0.791875 18.066C2.32484 18.066 3.73603 17.5483 4.86294 16.665C3.42131 16.6345 2.21319 15.6904 1.79694 14.3909C2 14.4213 2.20303 14.4416 2.41625 14.4416C2.71066 14.4416 3.00509 14.401 3.27919 14.33C1.77666 14.0254 0.649719 12.7056 0.649719 11.1117V11.0711C1.08625 11.3148 1.59391 11.467 2.13194 11.4873C1.24869 10.8985 0.670031 9.89341 0.670031 8.75634C0.670031 8.14722 0.832438 7.58884 1.11672 7.10153C2.73094 9.09138 5.15734 10.3908 7.87813 10.533C7.82738 10.2893 7.79691 10.0356 7.79691 9.78175C7.79691 7.97463 9.25884 6.50256 11.0761 6.50256C12.0203 6.50256 12.873 6.8985 13.472 7.53809C14.2131 7.39597 14.9238 7.12184 15.5533 6.74622C15.3096 7.50766 14.7918 8.14725 14.1116 8.55331C14.7715 8.48228 15.4111 8.2995 15.9999 8.04572C15.5533 8.69544 14.9949 9.27409 14.3553 9.74113Z" fill="#9CA3AF"/>
</svg>
