<svg width="36" height="36" viewBox="0 0 36 36" fill="none" xmlns="http://www.w3.org/2000/svg">
<g clip-path="url(#clip0_1_70)">
<path d="M5.4 16.2C7.38562 16.2 9 14.5856 9 12.6C9 10.6144 7.38562 9.00002 5.4 9.00002C3.41438 9.00002 1.8 10.6144 1.8 12.6C1.8 14.5856 3.41438 16.2 5.4 16.2ZM30.6 16.2C32.5856 16.2 34.2 14.5856 34.2 12.6C34.2 10.6144 32.5856 9.00002 30.6 9.00002C28.6144 9.00002 27 10.6144 27 12.6C27 14.5856 28.6144 16.2 30.6 16.2ZM32.4 18H28.8C27.81 18 26.9156 18.3994 26.2631 19.0463C28.53 20.2894 30.1388 22.5338 30.4875 25.2H34.2C35.1956 25.2 36 24.3956 36 23.4V21.6C36 19.6144 34.3856 18 32.4 18ZM18 18C21.4819 18 24.3 15.1819 24.3 11.7C24.3 8.21815 21.4819 5.40002 18 5.40002C14.5181 5.40002 11.7 8.21815 11.7 11.7C11.7 15.1819 14.5181 18 18 18ZM22.32 19.8H21.8531C20.6831 20.3625 19.3837 20.7 18 20.7C16.6162 20.7 15.3225 20.3625 14.1469 19.8H13.68C10.1025 19.8 7.2 22.7025 7.2 26.28V27.9C7.2 29.3906 8.40938 30.6 9.9 30.6H26.1C27.5906 30.6 28.8 29.3906 28.8 27.9V26.28C28.8 22.7025 25.8975 19.8 22.32 19.8ZM9.73688 19.0463C9.08438 18.3994 8.19 18 7.2 18H3.6C1.61437 18 0 19.6144 0 21.6V23.4C0 24.3956 0.804375 25.2 1.8 25.2H5.50688C5.86125 22.5338 7.47 20.2894 9.73688 19.0463Z" fill="#22C55E"/>
</g>
<defs>
<clipPath id="clip0_1_70">
<rect width="36" height="36" fill="white"/>
</clipPath>
</defs>
</svg>
