<svg width="16" height="24" viewBox="0 0 16 24" fill="none" xmlns="http://www.w3.org/2000/svg">
<path d="M8.00315 9.40623C6.01565 9.40623 4.41252 11.0094 4.41252 12.9969C4.41252 14.9844 6.01565 16.5875 8.00315 16.5875C9.99065 16.5875 11.5938 14.9844 11.5938 12.9969C11.5938 11.0094 9.99065 9.40623 8.00315 9.40623ZM8.00315 15.3312C6.71877 15.3312 5.66877 14.2844 5.66877 12.9969C5.66877 11.7094 6.71565 10.6625 8.00315 10.6625C9.29065 10.6625 10.3375 11.7094 10.3375 12.9969C10.3375 14.2844 9.28752 15.3312 8.00315 15.3312ZM12.5781 9.25935C12.5781 9.72498 12.2031 10.0969 11.7407 10.0969C11.275 10.0969 10.9031 9.72185 10.9031 9.25935C10.9031 8.79685 11.2782 8.42185 11.7407 8.42185C12.2031 8.42185 12.5781 8.79685 12.5781 9.25935ZM14.9563 10.1094C14.9031 8.98748 14.6469 7.99373 13.825 7.17498C13.0063 6.35623 12.0125 6.09998 10.8906 6.04373C9.7344 5.9781 6.26877 5.9781 5.11252 6.04373C3.99377 6.09685 3.00002 6.3531 2.17815 7.17185C1.35627 7.9906 1.10315 8.98435 1.0469 10.1062C0.981274 11.2625 0.981274 14.7281 1.0469 15.8843C1.10002 17.0062 1.35627 18 2.17815 18.8187C3.00002 19.6375 3.99065 19.8937 5.11252 19.95C6.26877 20.0156 9.7344 20.0156 10.8906 19.95C12.0125 19.8968 13.0063 19.6406 13.825 18.8187C14.6438 18 14.9 17.0062 14.9563 15.8843C15.0219 14.7281 15.0219 11.2656 14.9563 10.1094ZM13.4625 17.125C13.2188 17.7375 12.7469 18.2094 12.1313 18.4562C11.2094 18.8219 9.0219 18.7375 8.00315 18.7375C6.9844 18.7375 4.79377 18.8187 3.87502 18.4562C3.26252 18.2125 2.79065 17.7406 2.54377 17.125C2.17815 16.2031 2.26252 14.0156 2.26252 12.9969C2.26252 11.9781 2.18127 9.78748 2.54377 8.86873C2.78752 8.25623 3.2594 7.78435 3.87502 7.53748C4.7969 7.17185 6.9844 7.25623 8.00315 7.25623C9.0219 7.25623 11.2125 7.17498 12.1313 7.53748C12.7438 7.78123 13.2156 8.2531 13.4625 8.86873C13.8281 9.7906 13.7438 11.9781 13.7438 12.9969C13.7438 14.0156 13.8281 16.2062 13.4625 17.125Z" fill="#9CA3AF"/>
</svg>
