<svg width="36" height="36" viewBox="0 0 36 36" fill="none" xmlns="http://www.w3.org/2000/svg">
<path d="M2.25 32.625C2.25 34.4883 3.76172 36 5.625 36H30.375C32.2383 36 33.75 34.4883 33.75 32.625V13.5H2.25V32.625ZM24.75 18.8438C24.75 18.3797 25.1297 18 25.5938 18H28.4062C28.8703 18 29.25 18.3797 29.25 18.8438V21.6562C29.25 22.1203 28.8703 22.5 28.4062 22.5H25.5938C25.1297 22.5 24.75 22.1203 24.75 21.6562V18.8438ZM24.75 27.8438C24.75 27.3797 25.1297 27 25.5938 27H28.4062C28.8703 27 29.25 27.3797 29.25 27.8438V30.6562C29.25 31.1203 28.8703 31.5 28.4062 31.5H25.5938C25.1297 31.5 24.75 31.1203 24.75 30.6562V27.8438ZM15.75 18.8438C15.75 18.3797 16.1297 18 16.5938 18H19.4062C19.8703 18 20.25 18.3797 20.25 18.8438V21.6562C20.25 22.1203 19.8703 22.5 19.4062 22.5H16.5938C16.1297 22.5 15.75 22.1203 15.75 21.6562V18.8438ZM15.75 27.8438C15.75 27.3797 16.1297 27 16.5938 27H19.4062C19.8703 27 20.25 27.3797 20.25 27.8438V30.6562C20.25 31.1203 19.8703 31.5 19.4062 31.5H16.5938C16.1297 31.5 15.75 31.1203 15.75 30.6562V27.8438ZM6.75 18.8438C6.75 18.3797 7.12969 18 7.59375 18H10.4062C10.8703 18 11.25 18.3797 11.25 18.8438V21.6562C11.25 22.1203 10.8703 22.5 10.4062 22.5H7.59375C7.12969 22.5 6.75 22.1203 6.75 21.6562V18.8438ZM6.75 27.8438C6.75 27.3797 7.12969 27 7.59375 27H10.4062C10.8703 27 11.25 27.3797 11.25 27.8438V30.6562C11.25 31.1203 10.8703 31.5 10.4062 31.5H7.59375C7.12969 31.5 6.75 31.1203 6.75 30.6562V27.8438ZM30.375 4.5H27V1.125C27 0.50625 26.4937 0 25.875 0H23.625C23.0063 0 22.5 0.50625 22.5 1.125V4.5H13.5V1.125C13.5 0.50625 12.9937 0 12.375 0H10.125C9.50625 0 9 0.50625 9 1.125V4.5H5.625C3.76172 4.5 2.25 6.01172 2.25 7.875V11.25H33.75V7.875C33.75 6.01172 32.2383 4.5 30.375 4.5Z" fill="#22C55E"/>
</svg>
