<?xml version="1.0" encoding="UTF-8"?>
<svg version="1.1" viewBox="0 0 2048 683" width="1280" height="1280" xmlns="http://www.w3.org/2000/svg">
<path transform="translate(391,125)" d="m0 0 3 1 15 26 14 24 60 104 7 12-1 6-10 17-16 28-30 52-14 24-15 26-11 19h-2l-7-14-14-24-11-19-14-24-45-78-6-10 2-6 9-15 60-104 14-24 9-15z" fill="#FEFEFE"/>
<path transform="translate(531,367)" d="m0 0 3 1 30 52 12 21 14 24 15 26 14 24 10 17 1 4h-195l1-4 14-24 15-26 11-19 14-24 13-23 10-17 16-28z" fill="#FEFEFE"/>
<path transform="translate(251,366)" d="m0 0h2l11 20 14 24 16 28 10 17 12 21 14 24 12 21 8 13-1 2h-194v-3l8-13 14-25 28-48 30-52 14-24z" fill="#FEFEFE"/>
<path transform="translate(1141,246)" d="m0 0h11l8 7 15 16 11 12 9 10 10 11 7 8 15 16 11 12 7 8v-96h29v149l-1 1h-11l-8-7-11-12-14-15-11-12-24-26-9-10-13-14-3-4-1 100h-27z" fill="#FEFEFE"/>
<path transform="translate(986,250)" d="m0 0h98v21l-68 1-1 40h60l1 1v20l-2 1h-59v44h71v21l-1 1h-98l-1-1z" fill="#FEFEFE"/>
<path transform="translate(648,250)" d="m0 0h97l1 1v19l-1 1-67 1-1 40h60l1 3-1 18-1 1h-59v44h70l1 1v20l-2 1h-98z" fill="#FEFEFE"/>
<path transform="translate(786,250)" d="m0 0h31l15 31 9 20 16 34 5 14 2-3 9-20 17-37 17-36 2-3h31l-8 18-8 16-12 25-16 33-13 28-14 28-2 2h-8l-3-3-20-40-13-28-20-41-13-28-4-8z" fill="#FEFEFE"/>
<path transform="translate(1578,250)" d="m0 0h98v24l-1 1h-68l1 40 60 1v21l-60 1-1 61-1 1h-27l-1-1z" fill="#FEFEFE"/>
<path transform="translate(1714,250)" d="m0 0h32l10 15 11 17 11 18 4 8v2h2l2-6 11-18 11-17 12-18 1-1h31l-2 5-15 23-10 15-16 25-10 15-1 2-1 64-1 1h-26l-1-1-1-65-28-42-15-23-11-17z" fill="#FEFEFE"/>
<path transform="translate(1323,250)" d="m0 0h114v24l-1 1h-41v124l-1 1h-28v-125h-43l-1-1v-23z" fill="#FEFEFE"/>
<path transform="translate(1486,250)" d="m0 0h29l1 2-1 147-1 1h-27l-1-1z" fill="#FEFEFE"/>
</svg>
