<svg width="352" height="264" viewBox="0 0 352 264" fill="none" xmlns="http://www.w3.org/2000/svg">
<g clip-path="url(#clip0_1_28)">
<path d="M352 0H0V264H352V0Z" fill="#DDDDDD"/>
<path d="M76.824 136.154H87.0848V125.118C87.0848 124.08 87.1552 122.93 87.296 121.669L76.824 136.154ZM92.1008 136.154H96.3424V139.489C96.3424 139.8 96.2397 140.067 96.0344 140.29C95.8349 140.518 95.5475 140.633 95.172 140.633H92.1008V148.861H87.0848V140.633H72.8552C72.468 140.633 72.1277 140.51 71.8344 140.263C71.5352 140.023 71.3475 139.724 71.2712 139.366L70.664 136.453L86.6448 115.113H92.1008V136.154ZM123.42 132C123.42 134.939 123.103 137.494 122.47 139.665C121.842 141.83 120.971 143.619 119.856 145.033C118.747 146.453 117.436 147.506 115.922 148.192C114.403 148.884 112.766 149.23 111.012 149.23C109.252 149.23 107.624 148.884 106.128 148.192C104.626 147.506 103.324 146.453 102.221 145.033C101.118 143.619 100.255 141.83 99.6336 139.665C99.0117 137.494 98.7008 134.939 98.7008 132C98.7008 129.049 99.0117 126.491 99.6336 124.326C100.255 122.168 101.118 120.381 102.221 118.967C103.324 117.553 104.626 116.5 106.128 115.808C107.624 115.116 109.252 114.77 111.012 114.77C112.766 114.77 114.403 115.116 115.922 115.808C117.436 116.5 118.747 117.553 119.856 118.967C120.971 120.381 121.842 122.168 122.47 124.326C123.103 126.491 123.42 129.049 123.42 132ZM117.471 132C117.471 129.56 117.292 127.538 116.934 125.937C116.577 124.335 116.098 123.059 115.5 122.109C114.902 121.164 114.212 120.501 113.432 120.12C112.658 119.739 111.851 119.548 111.012 119.548C110.185 119.548 109.387 119.739 108.618 120.12C107.85 120.501 107.169 121.164 106.577 122.109C105.99 123.059 105.521 124.335 105.169 125.937C104.817 127.538 104.641 129.56 104.641 132C104.641 134.441 104.817 136.462 105.169 138.063C105.521 139.665 105.99 140.941 106.577 141.891C107.169 142.836 107.85 143.499 108.618 143.88C109.387 144.261 110.185 144.452 111.012 144.452C111.851 144.452 112.658 144.261 113.432 143.88C114.212 143.499 114.902 142.836 115.5 141.891C116.098 140.941 116.577 139.665 116.934 138.063C117.292 136.462 117.471 134.441 117.471 132ZM150.471 132C150.471 134.939 150.154 137.494 149.521 139.665C148.893 141.83 148.022 143.619 146.907 145.033C145.798 146.453 144.487 147.506 142.974 148.192C141.454 148.884 139.817 149.23 138.063 149.23C136.303 149.23 134.675 148.884 133.179 148.192C131.677 147.506 130.375 146.453 129.272 145.033C128.169 143.619 127.307 141.83 126.685 139.665C126.063 137.494 125.752 134.939 125.752 132C125.752 129.049 126.063 126.491 126.685 124.326C127.307 122.168 128.169 120.381 129.272 118.967C130.375 117.553 131.677 116.5 133.179 115.808C134.675 115.116 136.303 114.77 138.063 114.77C139.817 114.77 141.454 115.116 142.974 115.808C144.487 116.5 145.798 117.553 146.907 118.967C148.022 120.381 148.893 122.168 149.521 124.326C150.154 126.491 150.471 129.049 150.471 132ZM144.522 132C144.522 129.56 144.343 127.538 143.986 125.937C143.628 124.335 143.15 123.059 142.551 122.109C141.953 121.164 141.263 120.501 140.483 120.12C139.709 119.739 138.902 119.548 138.063 119.548C137.236 119.548 136.438 119.739 135.67 120.12C134.901 120.501 134.221 121.164 133.628 122.109C133.041 123.059 132.572 124.335 132.22 125.937C131.868 127.538 131.692 129.56 131.692 132C131.692 134.441 131.868 136.462 132.22 138.063C132.572 139.665 133.041 140.941 133.628 141.891C134.221 142.836 134.901 143.499 135.67 143.88C136.438 144.261 137.236 144.452 138.063 144.452C138.902 144.452 139.709 144.261 140.483 143.88C141.263 143.499 141.953 142.836 142.551 141.891C143.15 140.941 143.628 139.665 143.986 138.063C144.343 136.462 144.522 134.441 144.522 132ZM187.502 141.143L184.448 144.153L176.537 136.242L168.564 144.197L165.51 141.187L173.483 133.188L165.88 125.585L168.916 122.558L176.519 130.161L184.07 122.602L187.15 125.638L179.573 133.214L187.502 141.143ZM206.906 125.074L203.87 124.538C204.104 122.918 204.556 121.499 205.225 120.278C205.894 119.058 206.73 118.04 207.733 117.225C208.736 116.409 209.886 115.796 211.182 115.386C212.479 114.975 213.875 114.77 215.371 114.77C216.926 114.77 218.328 114.99 219.578 115.43C220.827 115.876 221.895 116.492 222.781 117.278C223.667 118.058 224.347 118.979 224.822 120.041C225.298 121.097 225.535 122.238 225.535 123.464C225.535 124.538 225.415 125.482 225.174 126.298C224.934 127.113 224.588 127.826 224.136 128.436C223.684 129.04 223.124 129.554 222.455 129.976C221.786 130.393 221.033 130.742 220.194 131.023C222.218 131.657 223.725 132.628 224.717 133.936C225.714 135.244 226.213 136.884 226.213 138.855C226.213 140.533 225.902 142.017 225.28 143.308C224.658 144.599 223.819 145.684 222.763 146.564C221.701 147.444 220.475 148.11 219.085 148.562C217.694 149.008 216.222 149.23 214.667 149.23C212.972 149.23 211.496 149.037 210.241 148.65C208.979 148.262 207.882 147.688 206.95 146.925C206.017 146.162 205.225 145.229 204.574 144.126C203.917 143.024 203.356 141.748 202.893 140.298L205.436 139.251C206.105 138.976 206.73 138.902 207.31 139.031C207.891 139.166 208.314 139.48 208.578 139.973C208.859 140.518 209.167 141.055 209.502 141.583C209.836 142.111 210.238 142.584 210.707 143C211.171 143.411 211.716 143.742 212.344 143.994C212.978 144.253 213.729 144.382 214.597 144.382C215.577 144.382 216.433 144.223 217.166 143.906C217.894 143.59 218.504 143.173 218.997 142.657C219.484 142.146 219.847 141.574 220.088 140.941C220.329 140.313 220.449 139.68 220.449 139.04C220.449 138.236 220.364 137.503 220.194 136.84C220.023 136.177 219.666 135.614 219.12 135.15C218.574 134.681 217.794 134.314 216.779 134.05C215.758 133.786 214.394 133.654 212.687 133.654V129.554C214.101 129.536 215.274 129.404 216.207 129.158C217.14 128.905 217.882 128.559 218.434 128.119C218.985 127.673 219.369 127.14 219.586 126.518C219.803 125.896 219.912 125.212 219.912 124.467C219.912 122.883 219.469 121.678 218.583 120.85C217.697 120.029 216.515 119.618 215.037 119.618C214.356 119.618 213.729 119.715 213.154 119.909C212.579 120.102 212.062 120.375 211.605 120.727C211.141 121.073 210.754 121.481 210.443 121.95C210.132 122.414 209.901 122.927 209.748 123.49C209.484 124.206 209.138 124.678 208.71 124.907C208.281 125.142 207.68 125.198 206.906 125.074ZM254.285 132C254.285 134.939 253.971 137.494 253.343 139.665C252.715 141.83 251.844 143.619 250.73 145.033C249.621 146.453 248.307 147.506 246.787 148.192C245.274 148.884 243.64 149.23 241.886 149.23C240.126 149.23 238.495 148.884 236.993 148.192C235.497 147.506 234.197 146.453 233.094 145.033C231.986 143.619 231.12 141.83 230.498 139.665C229.877 137.494 229.566 134.939 229.566 132C229.566 129.049 229.877 126.491 230.498 124.326C231.12 122.168 231.986 120.381 233.094 118.967C234.197 117.553 235.497 116.5 236.993 115.808C238.495 115.116 240.126 114.77 241.886 114.77C243.64 114.77 245.274 115.116 246.787 115.808C248.307 116.5 249.621 117.553 250.73 118.967C251.844 120.381 252.715 122.168 253.343 124.326C253.971 126.491 254.285 129.049 254.285 132ZM248.345 132C248.345 129.56 248.166 127.538 247.808 125.937C247.45 124.335 246.972 123.059 246.374 122.109C245.775 121.164 245.086 120.501 244.306 120.12C243.531 119.739 242.725 119.548 241.886 119.548C241.058 119.548 240.261 119.739 239.492 120.12C238.723 120.501 238.043 121.164 237.45 122.109C236.858 123.059 236.389 124.335 236.042 125.937C235.69 127.538 235.514 129.56 235.514 132C235.514 134.441 235.69 136.462 236.042 138.063C236.389 139.665 236.858 140.941 237.45 141.891C238.043 142.836 238.723 143.499 239.492 143.88C240.261 144.261 241.058 144.452 241.886 144.452C242.725 144.452 243.531 144.261 244.306 143.88C245.086 143.499 245.775 142.836 246.374 141.891C246.972 140.941 247.45 139.665 247.808 138.063C248.166 136.462 248.345 134.441 248.345 132ZM281.336 132C281.336 134.939 281.022 137.494 280.394 139.665C279.767 141.83 278.895 143.619 277.781 145.033C276.672 146.453 275.358 147.506 273.838 148.192C272.325 148.884 270.691 149.23 268.937 149.23C267.177 149.23 265.546 148.884 264.044 148.192C262.548 147.506 261.249 146.453 260.146 145.033C259.037 143.619 258.171 141.83 257.55 139.665C256.928 137.494 256.617 134.939 256.617 132C256.617 129.049 256.928 126.491 257.55 124.326C258.171 122.168 259.037 120.381 260.146 118.967C261.249 117.553 262.548 116.5 264.044 115.808C265.546 115.116 267.177 114.77 268.937 114.77C270.691 114.77 272.325 115.116 273.838 115.808C275.358 116.5 276.672 117.553 277.781 118.967C278.895 120.381 279.767 122.168 280.394 124.326C281.022 126.491 281.336 129.049 281.336 132ZM275.396 132C275.396 129.56 275.217 127.538 274.859 125.937C274.501 124.335 274.023 123.059 273.425 122.109C272.826 121.164 272.137 120.501 271.357 120.12C270.582 119.739 269.776 119.548 268.937 119.548C268.11 119.548 267.312 119.739 266.543 120.12C265.775 120.501 265.094 121.164 264.502 122.109C263.909 123.059 263.44 124.335 263.094 125.937C262.742 127.538 262.566 129.56 262.566 132C262.566 134.441 262.742 136.462 263.094 138.063C263.44 139.665 263.909 140.941 264.502 141.891C265.094 142.836 265.775 143.499 266.543 143.88C267.312 144.261 268.11 144.452 268.937 144.452C269.776 144.452 270.582 144.261 271.357 143.88C272.137 143.499 272.826 142.836 273.425 141.891C274.023 140.941 274.501 139.665 274.859 138.063C275.217 136.462 275.396 134.441 275.396 132Z" fill="#999999"/>
</g>
<defs>
<clipPath id="clip0_1_28">
<path d="M0 7.99999C0 3.58171 3.58172 0 8 0H344C348.418 0 352 3.58172 352 8V256C352 260.418 348.418 264 344 264H7.99999C3.58171 264 0 260.418 0 256V7.99999Z" fill="white"/>
</clipPath>
</defs>
</svg>
