<svg width="36" height="36" viewBox="0 0 36 36" fill="none" xmlns="http://www.w3.org/2000/svg">
<path d="M34.875 27H4.5V5.625C4.5 5.00344 3.99656 4.5 3.375 4.5H1.125C0.503438 4.5 0 5.00344 0 5.625V29.25C0 30.4924 1.00758 31.5 2.25 31.5H34.875C35.4966 31.5 36 30.9966 36 30.375V28.125C36 27.5034 35.4966 27 34.875 27ZM32.625 6.75H24.3239C22.8206 6.75 22.0676 8.56758 23.1307 9.6307L25.4088 11.9088L20.25 17.0684L15.0912 11.9095C14.2123 11.0306 12.7877 11.0306 11.9095 11.9095L7.07977 16.7393C6.64031 17.1788 6.64031 17.891 7.07977 18.3305L8.67023 19.9209C9.10969 20.3604 9.82195 20.3604 10.2614 19.9209L13.5 16.6816L18.6588 21.8405C19.5377 22.7194 20.9623 22.7194 21.8405 21.8405L28.5905 15.0905L30.8686 17.3686C31.9317 18.4317 33.7493 17.6787 33.7493 16.1754V7.875C33.75 7.25344 33.2466 6.75 32.625 6.75Z" fill="#22C55E"/>
</svg>
